<?xml version="1.0" encoding="UTF-8"?>
<!DOCTYPE svg PUBLIC "-//W3C//DTD SVG 1.1//EN" "http://www.w3.org/Graphics/SVG/1.1/DTD/svg11.dtd">
<svg xmlns="http://www.w3.org/2000/svg" xml:space="preserve" style="shape-rendering:geometricPrecision; text-rendering:geometricPrecision; image-rendering:optimizeQuality; fill-rule:evenodd; clip-rule:evenodd"
viewBox="0 0 7.87402 7.87402"
 xmlns:xlink="http://www.w3.org/1999/xlink">
 <defs>
  <style type="text/css">
   <![CDATA[
    .str0 {stroke:#101828;stroke-width:0.13889}
    .fil1 {fill:#101828}
    .fil0 {fill:#E44848}
   ]]>
  </style>
 </defs>
 <g id="Layer_x0020_1">
  <metadata id="CorelCorpID_0Corel-Layer"/>
  <g id="_646120544">
   <circle id="_472148856" class="fil0" cx="3.93701" cy="3.93701" r="3.93701"/>
   <path id="_472149480" class="fil1 str0" d="M6.57102 5.30494l-0.573331 -0.00416929c-0.0451654,-0.266165 -0.276531,-0.47026 -0.555862,-0.47026 -0.279323,-3.93701e-006 -0.510697,0.204094 -0.555858,0.47026l-0.196563 0 0 -2.35135 0.97437 0 0.444886 0.979102c0.00752756,0.0178937 0.020689,0.0320039 0.0376339,0.0423307l0.424197 0.25489c-0.00963386,0.493205 -0.00364567,0.587713 0.000527559,1.0792zm-1.12919 0.466094c-0.207839,0 -0.376193,-0.168354 -0.376193,-0.376193 3.93701e-006,-0.207882 0.168354,-0.376236 0.376193,-0.376236 0.207882,0 0.376232,0.168354 0.376232,0.376236 3.93701e-006,0.207839 -0.16835,0.376193 -0.376232,0.376193zm-0.94052 -0.470264l-1.23117 0c-0.0401417,-0.24028 -0.220752,-0.458516 -0.555858,-0.47026 -0.27937,-3.93701e-006 -0.510736,0.204094 -0.555858,0.47026 -0.0653543,0 -0.468331,-0.0206732 -0.562756,-0.0174409 0.00140157,-0.00808268 -0.0100394,-2.15733 -0.0100394,-2.33391l2.91568 0c0,0.891827 0,1.84522 0,2.35135zm-1.78702 0.470264c-0.207882,0 -0.376236,-0.168354 -0.376236,-0.376193 3.93701e-006,-0.207882 0.168354,-0.376236 0.376236,-0.376236 0.207839,0 0.376193,0.168354 0.376193,0.376236 3.93701e-006,0.207839 -0.168354,0.376193 -0.376193,0.376193zm-1.41081 -3.00971l0 -0.188098c0,-0.0517441 0.0423189,-0.094063 0.0940512,-0.094063l3.19781 -3.93701e-006c0.0254173,0 0.0489016,-0.0103228 0.0667953,-0.0272677l0.347976 -0.348925 1.16441 0c0.133559,0 0.246421,0.0912323 0.275583,0.221004l0.0968701 0.437354 -0.824862 0c-0.000944882,0 -0.000944882,3.93701e-006 -0.000944882,3.93701e-006l-4.41769 -3.93701e-006zm5.40901 1.32992l-0.444843 -0.267114 -0.397874 -0.874709 0.794756 0c0.0282165,0 0.0554843,-0.0131614 0.073374,-0.0347953 0.0178583,-0.0225472 0.024437,-0.0517047 0.0187992,-0.0799213l-0.122244 -0.552114c-0.0489409,-0.216315 -0.237988,-0.367744 -0.459937,-0.367744l-1.20294 -3.93701e-006c-0.0254173,0 -0.0489094,0.0103504 -0.0667992,0.0272835l-0.347976 0.348937 -3.15927 0c-0.155189,0 -0.282161,0.126976 -0.282161,0.282165l0 0.282165c0,0.0517008 0.0423268,0.0940276 0.0940551,0.0940276l0.188106 0c0,0.857114 -0.0252323,1.42769 0.000771654,2.53528l0.760134 0.00416535c0.045122,0.266205 0.276488,0.470303 0.555858,0.470303 0.279331,-3.93701e-006 0.510693,-0.204098 0.555854,-0.470303l1.61583 0c0.0451654,0.266205 0.276531,0.470303 0.555858,0.470303 0.279331,-3.93701e-006 0.510697,-0.204098 0.555858,-0.470303l0.666835 0c0.0517441,0 0.0940669,-0.0423228 0.0940669,-0.0940276l0 -1.22269c0,-0.0329449 -0.0169488,-0.0639567 -0.0461063,-0.0809055z"/>
   <path id="_646125488" class="fil1" d="M5.80499 3.93221l-0.312102 -0.702248c-0.0124921,-0.0280866 -0.0397913,-0.0460315 -0.0710157,-0.0460315l-0.390146 -3.93701e-006c-0.0429291,0 -0.0780433,0.0351181 -0.0780433,0.0780118l0 0.70228c0,0.0429331 0.0351142,0.0780472 0.0780433,0.0780472l0.702283 -3.93701e-006c0.0265157,0 0.0507087,-0.0132717 0.0655197,-0.0358937 0.0140591,-0.0218465 0.0164134,-0.0499606 0.00546063,-0.0741575z"/>
   <path id="_646125320" class="fil1" d="M2.4448 3.21672l-0.470264 0c-0.0517283,0 -0.0940512,0.0423268 -0.0940512,0.0940315l0 0.47026c0,0.0517441 0.0423228,0.0940709 0.0940512,0.0940709l0.470264 0c0.0517441,0 0.0940669,-0.0423228 0.0940669,-0.0940669l0 -0.470264c0,-0.0517047 -0.0423268,-0.0940276 -0.0940669,-0.0940315z"/>
   <path id="_646125344" class="fil1" d="M3.35139 3.21672l-0.470268 0c-0.0517402,0 -0.0940669,0.0423268 -0.0940669,0.0940315l0 0.47026c0,0.0517441 0.0423228,0.0940709 0.0940669,0.0940709l0.470268 0c0.0517441,0 0.094063,-0.0423228 0.094063,-0.0940669l0 -0.470264c0,-0.0517047 -0.0423228,-0.0940276 -0.094063,-0.0940315z"/>
  </g>
 </g>
</svg>
